<?xml version="1.0" standalone="no"?><!DOCTYPE svg PUBLIC "-//W3C//DTD SVG 1.1//EN" "http://www.w3.org/Graphics/SVG/1.1/DTD/svg11.dtd"><svg t="1741866396577" class="icon" viewBox="0 0 1024 1024" version="1.1" xmlns="http://www.w3.org/2000/svg" p-id="5428" xmlns:xlink="http://www.w3.org/1999/xlink" width="200" height="200"><path d="M391.605 898.713l44.608-747.552 37.532 2.24-44.608 747.552zM882.6 276.6c-39-77.8-138-113.5-255.2-103.7 1.2 6.4 1.8 13 1.8 19.6 74 11.3 132.7 45.4 160.6 101 55.5 110.5-29.6 267.1-191.7 368.3L536.2 122l-37.4 4.3 88.9 775.6 37.4-4.3-23.6-206c12.7-5.3 25.4-10.9 38.1-17.3 195.2-97.9 304.1-276 243-397.7zM236 407.7l10.1-11.7-15.5-1-8-13.2-5.6 14.4-15.1 3.6 12 9.8-1.3 15.4 13-8.3 14.3 6zM343.7 277.9l-6.9 17.5-18.2 4.3 14.5 11.9-1.6 18.7 15.8-10.1 17.3 7.3-4.7-18.2 12.2-14.2-18.7-1.1zM310.2 452.8l-13.6 34.7-36.3 8.5 28.8 23.7-3.1 37.2 31.4-20.2 34.4 14.5-9.5-36.1 24.4-28.2-37.2-2.2zM179.8 583.3l-15.5-25.5-10.8 27.8-29.1 6.8 23.1 18.9-2.5 29.8 25.1-16.1 27.5 11.5-7.5-28.8 19.5-22.6zM315.5 706.1l-22.2-36.6-15.6 39.9-41.6 9.7 33.1 27.2-3.6 42.6 36-23.1 39.5 16.6-10.9-41.4 28-32.4z" fill="#13227a" p-id="5429"></path></svg>