<?xml version="1.0" standalone="no"?><!DOCTYPE svg PUBLIC "-//W3C//DTD SVG 1.1//EN" "http://www.w3.org/Graphics/SVG/1.1/DTD/svg11.dtd"><svg t="1741866617576" class="icon" viewBox="0 0 1024 1024" version="1.1" xmlns="http://www.w3.org/2000/svg" p-id="6587" xmlns:xlink="http://www.w3.org/1999/xlink" width="200" height="200"><path d="M827.2 559.68V118.656A53.984 53.984 0 0 0 774.464 64H210.24A116.256 116.256 0 0 0 96 181.664v649.504c0.064 1.184 0.16 2.336 0.32 3.456a24.192 24.192 0 0 1-0.064 9.6 15.616 15.616 0 0 0-0.256 2.112 100.96 100.96 0 0 0 99.392 102.496h420.864a222.656 222.656 0 0 1-74.176-45.888A223.232 223.232 0 1 0 827.2 559.68l0.032-0.032zM247.872 114.72a18.24 18.24 0 0 1 12.256-4.576h138.976l1.344 0.448a5.632 5.632 0 0 0 1.728 0.288h0.8l10.048-1.664V403.84l-38.56-27.36a78.176 78.176 0 0 0-90.08 0l-38.528 27.36-0.768-286.4 2.784-2.72z m-107.744 67.2a71.872 71.872 0 0 1 50.4-68.704l11.136-3.392V418.88c0 13.696 7.488 26.336 19.456 32.992a36.064 36.064 0 0 0 38.24-2.4l49.696-35.168a35.52 35.52 0 0 1 40.416 0.096l49.6 35.296a36.8 36.8 0 0 0 57.856-30.624V110.144h325.984v423.36a223.424 223.424 0 0 0-313.6 195.104l-259.2 0.096a109.92 109.92 0 0 0-56.832 16.256l-13.152 8.096V181.92z m78.56 720.96v0.32l-8.768-0.16a70.72 70.72 0 0 1-68.992-63.392l-0.096-0.864 0.096-0.864a70.464 70.464 0 0 1 68.992-63.52h262.208a222.528 222.528 0 0 0 69.952 128.48l-323.424-0.032z m473.6 8.064a173.344 173.344 0 1 1 0-346.752 173.344 173.344 0 0 1 0 346.784v-0.032z" p-id="6588" fill="#13227a"></path><path d="M698.272 653.92a80.128 80.128 0 0 1 65.76 33.888h47.808c-19.904-45.824-61.76-75.712-115.552-75.712-67.744 0-123.52 55.776-123.52 123.52 0 67.776 55.776 123.52 123.52 123.52 51.808 0 95.68-31.872 115.552-75.68h-47.808a80.128 80.128 0 0 1-65.76 33.856c-43.84 0-81.696-35.84-81.696-81.696a80.832 80.832 0 0 1 81.696-81.696z" p-id="6589" fill="#13227a"></path></svg>